# xmcd
#
# Track frame offsets:
#	150
#	13474
#	33897
#	47938
#	67266
#	93073
#	105408
#	120490
#	136934
#	161361
#	183842
#	203272
#	216818
#	225142
#
# Disc length: 3217 seconds
#
# Revision: 0
# Processed by: cddbd v1.5.1PL0 Copyright (c) Steve Scherf et al.
# Submitted via: dBpowerAMP V4.0
#
DISCID=aa0c8f0e
DTITLE=Monte Montgomery - Architect
DYEAR=2004
DGENRE=Acoustic Rock
TTITLE0=Better Days
TTITLE1=Superman
TTITLE2=Let It Be Now
TTITLE3=Back to the Country
TTITLE4=The Book
TTITLE5=Splitsville
TTITLE6=Lost in the Wilderness
TTITLE7=Call It Love
TTITLE8=Runaway
TTITLE9=How the Story Goes
TTITLE10=My Favorite Son
TTITLE11=You Are Loved
TTITLE12=Poor Little Rich Girl
TTITLE13=New Meaning
EXTD=
EXTT0=
EXTT1=
EXTT2=
EXTT3=
EXTT4=
EXTT5=
EXTT6=
EXTT7=
EXTT8=
EXTT9=
EXTT10=
EXTT11=
EXTT12=
EXTT13=
PLAYORDER=
